<?xml version="1.0" ?><svg viewBox="0 0 512 512" xmlns="http://www.w3.org/2000/svg"><title/><g id="Bed"><path d="M424.5505,401.9426V98.5642a11.853,11.853,0,0,0-11.84-11.8389h-4.2373a11.8522,11.8522,0,0,0-11.8389,11.8389V121.865h15.0723a2,2,0,0,0,0-4H400.6345V98.5642a7.8479,7.8479,0,0,1,7.8389-7.8389h4.2373a7.8481,7.8481,0,0,1,7.84,7.8389V131.37h-23.916v26.7031H141.6169a2,2,0,0,0,0,4H396.6345V181.99H115.3655V98.5642a11.8526,11.8526,0,0,0-11.8389-11.8389H99.2888A11.8526,11.8526,0,0,0,87.45,98.5642V121.865h15.0727a2,2,0,0,0,0-4H91.45V98.5642a7.848,7.848,0,0,1,7.8393-7.8389h4.2378a7.8479,7.8479,0,0,1,7.8389,7.8389V131.37H87.45V401.9426a13.2661,13.2661,0,0,0-10.9,13.0313v10.3008h49.7154V414.9739a13.2661,13.2661,0,0,0-10.9-13.0314V375.6638H371.1033a2,2,0,0,0,0-4H115.3655v-19.916h281.269v50.1948a13.2659,13.2659,0,0,0-10.9,13.0313v10.3008H435.45V414.9739A13.2661,13.2661,0,0,0,424.5505,401.9426ZM141.6169,347.4148h-25.84V318.8782a33.3119,33.3119,0,0,1,25.84-32.4143Zm4-161.4253h18.7242V347.7478H145.6169Zm48.3213,161.4253H168.3411V285.613h25.5971Zm0-65.8018H168.3411V185.99h25.5971Zm4-95.6235h20.7242V347.7478H197.9382ZM246.2,347.4148H222.6624V285.613H246.2Zm0-65.8018H222.6624V185.99H246.2Zm4-95.6235h18.7236V347.7478H250.2Zm48.3212,161.4253H272.9236V285.613h25.5976Zm0-65.8018H272.9236V185.99h25.5976Zm4-95.6235h18.7237V347.7478H302.5212Zm46.3252,161.4253H325.2449V285.613h23.6015Zm0-65.8018H325.2449V185.99h23.6015Zm4-95.6235H371.57V347.7478H352.8464ZM375.57,288.166a33.2952,33.2952,0,0,1,20.5478,30.7122v28.5366H375.57ZM396.6345,303.17A37.4675,37.4675,0,0,0,375.57,283.8635V185.99h21.0644ZM141.6169,185.99v96.3784a37.3927,37.3927,0,0,0-26.2514,20.5786V185.99ZM122.2654,414.9739v6.3008H80.55v-6.3008a9.2635,9.2635,0,0,1,9.253-9.253,1.9978,1.9978,0,0,0,1.6465-3.1325V135.37h19.916V401.7209h-4.5362a2,2,0,1,0,0,4h6.1832A9.2635,9.2635,0,0,1,122.2654,414.9739ZM431.45,421.2747H389.7341v-6.3008a9.264,9.264,0,0,1,9.2539-9.253,1.9978,1.9978,0,0,0,1.6465-3.1325V135.37h19.916V401.7209h-4.3466a2,2,0,0,0,0,4h5.9931a9.2632,9.2632,0,0,1,9.253,9.253Z"/></g></svg>