<?xml version="1.0" ?><svg height="72" id="svg1025" version="1.1" viewBox="0 0 19.05 19.050001" width="72" xmlns="http://www.w3.org/2000/svg" xmlns:inkscape="http://www.inkscape.org/namespaces/inkscape" xmlns:sodipodi="http://sodipodi.sourceforge.net/DTD/sodipodi-0.dtd" xmlns:svg="http://www.w3.org/2000/svg"><defs id="defs1022"/><g id="layer1" style="opacity:1"><path d="M 9.5250292,4.9344978 A 1.5219405,1.5223819 0 0 1 8.0030657,3.4121075 1.5219405,1.5223819 0 0 1 9.5250006,1.8897113 1.5219405,1.5223819 0 0 1 11.046933,3.412084 1.5219405,1.5223819 0 0 1 9.5250292,4.9344978 Z" id="path37637" style="fill:#808080;fill-rule:evenodd;stroke:#808080;stroke-width:0.5;stroke-linecap:round;stroke-linejoin:round;stroke-miterlimit:4;stroke-dasharray:none;paint-order:markers fill stroke;stop-color:#000000"/><path d="M 9.5250292,11.047378 A 1.5219405,1.5223819 0 0 1 8.0030657,9.5249876 1.5219405,1.5223819 0 0 1 9.5250006,8.0025918 1.5219405,1.5223819 0 0 1 11.046933,9.5249643 1.5219405,1.5223819 0 0 1 9.5250292,11.047378 Z" id="path37776" style="fill:#808080;fill-rule:evenodd;stroke:#808080;stroke-width:0.5;stroke-linecap:round;stroke-linejoin:round;stroke-miterlimit:4;stroke-dasharray:none;paint-order:markers fill stroke;stop-color:#000000"/><path d="M 9.5250292,17.160289 A 1.5219405,1.5223819 0 0 1 8.0030657,15.637898 1.5219405,1.5223819 0 0 1 9.5250006,14.115502 1.5219405,1.5223819 0 0 1 11.046933,15.637873 1.5219405,1.5223819 0 0 1 9.5250292,17.160289 Z" id="path37778" style="fill:#808080;fill-rule:evenodd;stroke:#808080;stroke-width:0.5;stroke-linecap:round;stroke-linejoin:round;stroke-miterlimit:4;stroke-dasharray:none;paint-order:markers fill stroke;stop-color:#000000"/></g></svg>